<svg xmlns="http://www.w3.org/2000/svg" xmlns:xlink="http://www.w3.org/1999/xlink" version="1.1" x="0px" y="0px" viewBox="0 0 128 160" style="enable-background:new 0 0 128 128;" xml:space="preserve"><style type="text/css">
	.st0{fill:#313C42;}
</style><g><g><path class="st0" d="M89.4,112.3H38.6c-1.1,0-2-0.9-2-2V44.6c0-7.5-1-14.9-2.8-22.2c-0.1-0.5-0.1-1.1,0.2-1.5    c0.3-0.5,0.7-0.8,1.2-0.9l16.5-4.2c0.2,0,0.3-0.1,0.5-0.1h23.6c0.2,0,0.3,0,0.5,0.1L92.8,20c1.1,0.3,1.7,1.4,1.4,2.4l0,0.1    c-1.9,7.2-2.8,14.6-2.8,22v65.6C91.4,111.4,90.5,112.3,89.4,112.3z M40.6,108.3h46.8V44.6c0-7.1,0.8-14.3,2.5-21.2l-14.3-3.7H52.4    l-14.3,3.7c1.6,6.9,2.5,14.1,2.5,21.2V108.3z"/></g><g><path class="st0" d="M64,31.5c-7,0-12.8-6.2-12.8-13.7c0-0.6,0.4-1,1-1h23.6c0.6,0,1,0.4,1,1C76.8,25.3,71,31.5,64,31.5z     M53.3,18.7c0.5,6,5.1,10.7,10.7,10.7c5.6,0,10.3-4.7,10.7-10.7H53.3z"/></g><g><path class="st0" d="M12.9,92c-0.3,0-0.7-0.1-1-0.3l-10.4-6c-0.9-0.5-1.3-1.7-0.8-2.7L34,21c0.3-0.5,0.7-0.8,1.2-1    c0.5-0.1,1.1-0.1,1.6,0.2c0.5,0.3,0.8,0.7,0.9,1.3c2,7.5,2.9,15.3,2.9,23.1v4.4c0,0.4-0.1,0.7-0.3,1.1l-25.7,41    C14.2,91.7,13.6,92,12.9,92z M5.2,83.2l7.1,4.1l24.4-38.9v-3.9c0-5.7-0.6-11.4-1.7-17L5.2,83.2z"/></g><g><path class="st0" d="M115.1,92c-0.7,0-1.3-0.3-1.7-0.9l-25.7-41c-0.2-0.3-0.3-0.7-0.3-1.1v-4.4c0-7.8,1-15.5,2.9-23    c0.1-0.6,0.4-1.1,1-1.4c0.5-0.3,1-0.3,1.6-0.2c0.5,0.1,1,0.5,1.2,1l33.2,62.1c0.5,1,0.2,2.1-0.8,2.7l-10.4,6    C115.8,92,115.4,92,115.1,92z M91.4,48.5l24.4,38.9l7.1-4.1L93,27.6c-1.1,5.6-1.7,11.3-1.7,17V48.5z"/></g></g></svg>
