<svg xmlns="http://www.w3.org/2000/svg" xmlns:xlink="http://www.w3.org/1999/xlink" version="1.1" x="0px" y="0px" viewBox="0 0 128 160" style="enable-background:new 0 0 128 128;" xml:space="preserve"><style type="text/css">
	.st0{fill:#fff;}
</style><g><g><path class="st0" d="M125.5,127.5h-56c-1,0-1.9-0.8-2-1.8L64,92l-3.5,33.7c-0.1,1-1,1.8-2,1.8h-56c-0.6,0-1.1-0.2-1.5-0.7    c-0.4-0.4-0.6-1-0.5-1.6L14,18.1V2.5c0-1.1,0.9-2,2-2h96c1.1,0,2,0.9,2,2v15.6l13.5,107.2c0.1,0.6-0.1,1.1-0.5,1.6    C126.6,127.3,126.1,127.5,125.5,127.5z M71.3,123.5h51.9L110,18.4c0-0.1,0-0.2,0-0.3V4.5H18v13.7c0,0.1,0,0.2,0,0.3L4.8,123.5    h51.9L62,72.7c0.1-1,1-1.8,2-1.8c1,0,1.9,0.8,2,1.8L71.3,123.5z"/></g><g><path class="st0" d="M46.9,19.2c-0.6,0-1-0.4-1-1V2.5c0-0.6,0.4-1,1-1c0.6,0,1,0.4,1,1v15.7C47.9,18.7,47.4,19.2,46.9,19.2z"/></g><g><path class="st0" d="M81.1,19.2c-0.6,0-1-0.4-1-1V2.5c0-0.6,0.4-1,1-1c0.6,0,1,0.4,1,1v15.7C82.1,18.7,81.7,19.2,81.1,19.2z"/></g><g><path class="st0" d="M64,73h-5.2c-4.3,0-7.9-3.5-7.9-7.9v-47c0-0.6,0.4-1,1-1H64c0.6,0,1,0.4,1,1V72C65,72.6,64.6,73,64,73z     M52.9,19.2v46c0,3.2,2.6,5.9,5.9,5.9H63V19.2H52.9z"/></g><g><path class="st0" d="M116.1,50.6c-0.1,0-0.2,0-0.3,0c-30.4-9.3-28.1-32.2-28.1-32.5c0.1-0.5,0.6-0.9,1.1-0.9    c0.5,0.1,0.9,0.6,0.9,1.1c-0.1,0.9-2.1,21.5,26.7,30.3c0.5,0.2,0.8,0.7,0.7,1.2C117,50.3,116.6,50.6,116.1,50.6z"/></g><g><path class="st0" d="M11.9,50.6c-0.4,0-0.8-0.3-1-0.7c-0.2-0.5,0.1-1.1,0.7-1.2c28.8-8.8,26.8-29.5,26.7-30.3    c-0.1-0.5,0.3-1,0.9-1.1c0.5-0.1,1,0.3,1.1,0.9c0,0.2,2.3,23.1-28.1,32.5C12.1,50.6,12,50.6,11.9,50.6z"/></g><g><path class="st0" d="M112.2,19.2H15.8c-0.6,0-1-0.4-1-1s0.4-1,1-1h96.3c0.6,0,1,0.4,1,1S112.7,19.2,112.2,19.2z"/></g></g></svg>
