<svg xmlns="http://www.w3.org/2000/svg" xmlns:xlink="http://www.w3.org/1999/xlink" version="1.1" x="0px" y="0px" viewBox="0 0 128 160" style="enable-background:new 0 0 128 128;" xml:space="preserve"><style type="text/css">
	.st0{fill:#fff;}
	.st1{fill:none;stroke:#313C42;stroke-width:4;stroke-linecap:round;stroke-linejoin:round;stroke-miterlimit:10;}
</style><g><g><path class="st0" d="M64,38.4c-11.5,0-22.9-3.3-33.6-9.8c-0.9-0.5-1.2-1.6-0.8-2.5l4.9-10.9c0.2-0.6,0.7-1,1.3-1.1    c0.6-0.2,1.2,0,1.7,0.3c16.3,11.9,36.6,11.9,53,0c0.5-0.4,1.1-0.5,1.7-0.3c0.6,0.2,1.1,0.6,1.3,1.1L98.4,26c0.4,0.9,0.1,2-0.8,2.5    C86.9,35.1,75.5,38.4,64,38.4z M34,26c19.1,11.1,40.8,11.1,60,0L90.8,19c-16.8,11.1-36.9,11.1-53.7,0L34,26z"/></g><g><path class="st0" d="M52,114.1c-0.1,0-0.2,0-0.2,0c-5.2-0.6-10.2-2.7-15.1-4.6c-2-0.8-4.1-1.6-6.1-2.3c-1-0.3-1.5-1.4-1.3-2.4    L48,34.1c0.3-1.1,1.3-1.7,2.4-1.4c2.8,0.7,5.8,1.2,8.7,1.4c0.5,0,1,0.3,1.4,0.7c0.3,0.4,0.5,0.9,0.5,1.5l-6.9,76    c0,0.5-0.3,1-0.7,1.4C52.9,113.9,52.5,114.1,52,114.1z M33.7,103.9c1.5,0.6,3,1.2,4.5,1.8c4,1.6,8,3.2,12,4l6.5-71.9    c-1.8-0.2-3.6-0.5-5.4-0.9L33.7,103.9z"/></g><g><path class="st0" d="M14.3,101.5c-0.3,0-0.7-0.1-1-0.3c-4.1-2.3-8.2-4.9-12-7.7c-0.8-0.6-1-1.6-0.6-2.4l29-65.1    c0.2-0.5,0.7-0.9,1.2-1.1c0.6-0.2,1.1-0.1,1.6,0.2c3.3,2,6.8,3.8,10.4,5.2c0.5,0.2,0.9,0.6,1.1,1.1c0.2,0.5,0.2,1.1,0,1.6    l-27.9,67.3c-0.2,0.5-0.7,0.9-1.2,1.1C14.7,101.4,14.5,101.5,14.3,101.5z M5,91.2c2.7,1.9,5.5,3.7,8.3,5.4l26.3-63.3    c-2.5-1-4.9-2.2-7.2-3.6L5,91.2z"/></g><g><path class="st0" d="M31.3,109.2c-0.2,0-0.4,0-0.7-0.1c-4-1.4-7.9-3.9-11.7-6.3c-2-1.3-3.8-2.5-5.7-3.5c-0.9-0.5-1.3-1.6-0.9-2.5    l27.9-65.3c0.4-1,1.6-1.5,2.6-1.1c2.5,0.9,5,1.7,7.4,2.3c0.5,0.1,1,0.5,1.2,0.9c0.3,0.5,0.4,1,0.2,1.5l-18.6,72.6    c-0.1,0.5-0.5,1-1,1.3C31.9,109.1,31.6,109.2,31.3,109.2z M16.8,96.7c1.4,0.9,2.9,1.8,4.3,2.7c2.9,1.9,5.9,3.8,8.8,5.1L47.5,36    c-1.4-0.4-2.8-0.8-4.2-1.3L16.8,96.7z"/></g><g><path class="st0" d="M64,112.8c-4.1,0-8.2-0.3-12.2-0.8c-1.1-0.1-1.8-1.1-1.7-2.2l6.9-74c0.1-1.1,1.1-1.9,2.2-1.8    c3.3,0.3,6.6,0.3,9.8,0c1.1-0.1,2.1,0.7,2.2,1.8l6.9,74c0.1,1.1-0.7,2-1.7,2.2C72.2,112.6,68.1,112.8,64,112.8z M54.2,108.3    c6.5,0.7,13.1,0.7,19.6,0l-6.5-70.1c-2.2,0.1-4.4,0.1-6.6,0L54.2,108.3z"/></g><g><path class="st0" d="M96.7,109.2c-0.3,0-0.7-0.1-0.9-0.2c-0.5-0.3-0.9-0.7-1-1.3L76.1,35.1c-0.1-0.5-0.1-1.1,0.2-1.5    c0.3-0.5,0.7-0.8,1.2-0.9c2.5-0.6,5-1.4,7.4-2.3c1-0.4,2.1,0.1,2.6,1.1l27.9,65.3c0.4,0.9,0,2-0.9,2.5c-1.9,1-3.7,2.2-5.7,3.5    c-3.8,2.4-7.7,4.9-11.7,6.3C97.2,109.1,96.9,109.2,96.7,109.2z M80.5,36l17.6,68.4c2.9-1.3,5.9-3.2,8.8-5.1    c1.4-0.9,2.9-1.8,4.3-2.7L84.7,34.7C83.3,35.2,81.9,35.7,80.5,36z"/></g><g><path class="st0" d="M113.7,101.5c-0.2,0-0.4,0-0.7-0.1c-0.5-0.2-1-0.6-1.2-1.1L83.9,33c-0.2-0.5-0.2-1.1,0-1.6    c0.2-0.5,0.6-0.9,1.1-1.1c3.6-1.4,7.1-3.1,10.4-5.2c0.5-0.3,1.1-0.4,1.6-0.2c0.6,0.2,1,0.6,1.2,1.1l29,65.1    c0.4,0.9,0.1,1.9-0.6,2.4c-3.8,2.8-7.8,5.4-12,7.7C114.4,101.4,114.1,101.5,113.7,101.5z M88.4,33.3l26.3,63.3    c2.9-1.7,5.6-3.5,8.3-5.4L95.6,29.7C93.3,31,90.9,32.2,88.4,33.3z"/></g><g><path class="st0" d="M76,114.1c-0.5,0-0.9-0.2-1.3-0.4c-0.4-0.3-0.7-0.8-0.7-1.4l-6.9-76c0-0.5,0.1-1.1,0.5-1.5    c0.3-0.4,0.8-0.7,1.4-0.7c2.9-0.3,5.8-0.7,8.7-1.4c1.1-0.3,2.1,0.4,2.4,1.4l18.6,70.6c0.3,1-0.3,2.1-1.3,2.4    c-2,0.7-4.1,1.5-6.1,2.3c-4.9,2-9.9,4-15.1,4.6C76.1,114.1,76,114.1,76,114.1z M71.3,37.9l6.5,71.9c4-0.8,8.1-2.4,12-4    c1.5-0.6,3-1.2,4.5-1.8L76.6,37C74.9,37.4,73.1,37.7,71.3,37.9z"/></g></g></svg>
