<svg xmlns="http://www.w3.org/2000/svg" xmlns:xlink="http://www.w3.org/1999/xlink" version="1.1" x="0px" y="0px" viewBox="0 0 128 160" style="enable-background:new 0 0 128 128;" xml:space="preserve"><style type="text/css">
	.st0{fill:#313C42;}
</style><g><g><path class="st0" d="M98.9,124.5H29.1c-1.1,0-2-0.9-2-2V42.5c0-10.3-1.3-20.7-3.9-30.7c-0.1-0.5-0.1-1.1,0.2-1.5    c0.3-0.5,0.7-0.8,1.2-0.9l22.7-5.8c0.2,0,0.3-0.1,0.5-0.1h32.5c0.2,0,0.3,0,0.5,0.1l22.7,5.8c1.1,0.3,1.7,1.4,1.4,2.4l-0.1,0.2    c-2.6,10-3.9,20.2-3.9,30.5l0,80.1c0,0.5-0.2,1-0.6,1.4S99.5,124.5,98.9,124.5z M31.1,120.5h65.9l0-78.1c0-10,1.2-20,3.6-29.7    L80,7.5H48l-20.5,5.3c2.4,9.7,3.6,19.7,3.6,29.7V120.5z"/></g><g><path class="st0" d="M64,24c-9.5,0-17.2-8.3-17.2-18.5c0-0.6,0.4-1,1-1h32.4c0.6,0,1,0.4,1,1C81.2,15.7,73.5,24,64,24z M48.8,6.5    C49.3,15.1,55.9,22,64,22s14.7-6.9,15.2-15.5H48.8z"/></g><g><path class="st0" d="M17,69.9c-0.5,0-1-0.2-1.4-0.6L1.1,54.8c-0.6-0.6-0.8-1.6-0.3-2.4l22.6-42.2c0.3-0.5,0.7-0.8,1.2-1    C25,9.2,25.5,9.2,26,9.5c0.5,0.3,0.9,0.8,1,1.3c2.7,10.3,4,21,4,31.6v6.1c0,0.4-0.1,0.7-0.3,1.1L18.6,68.9    c-0.3,0.5-0.9,0.9-1.5,0.9C17.1,69.9,17,69.9,17,69.9z M5,53.1l11.6,11.6L27.1,48v-5.5c0-8.6-0.9-17.2-2.7-25.6L5,53.1z"/></g><g><path class="st0" d="M111,69.9c-0.1,0-0.1,0-0.2,0c-0.6-0.1-1.1-0.4-1.5-0.9L97.2,49.6c-0.2-0.3-0.3-0.7-0.3-1.1v-6.1    c0-10.6,1.3-21.2,4-31.5l0,0c0.1-0.6,0.4-1.1,1-1.4c0.5-0.3,1-0.3,1.6-0.2c0.5,0.1,1,0.5,1.2,1l22.6,42.2c0.4,0.8,0.3,1.7-0.3,2.4    l-14.5,14.5C112.1,69.7,111.6,69.9,111,69.9z M100.9,48l10.5,16.7L123,53.1l-19.4-36.2c-1.8,8.4-2.7,17-2.7,25.6V48z"/></g></g></svg>
