<svg xmlns="http://www.w3.org/2000/svg" xmlns:xlink="http://www.w3.org/1999/xlink" version="1.1" x="0px" y="0px" viewBox="0 0 128 160" style="enable-background:new 0 0 128 128;" xml:space="preserve"><style type="text/css">
	.st0{fill:#fff;}
</style><g><g><path class="st0" d="M101.4,120.3H26.6c-1.1,0-2-0.9-2-2V43.4l-6.3,5.5c-0.4,0.3-0.9,0.5-1.5,0.5c-0.5,0-1-0.3-1.4-0.7L1,32    c-0.7-0.8-0.6-2.1,0.2-2.8l24.1-21c0.4-0.3,0.8-0.5,1.3-0.5h74.8c0.5,0,1,0.2,1.3,0.5l24.1,21c0.8,0.7,0.9,2,0.2,2.8l-14.5,16.7    c-0.7,0.8-2,0.9-2.8,0.2l-6.3-5.5v74.9C103.4,119.4,102.5,120.3,101.4,120.3z M28.6,116.3h70.8V39c0-0.8,0.5-1.5,1.2-1.8    c0.7-0.3,1.6-0.2,2.1,0.3l8.1,7l11.9-13.6l-22-19.2H27.4l-22,19.2l11.9,13.6l8.1-7c0.6-0.5,1.4-0.6,2.1-0.3c0.7,0.3,1.2,1,1.2,1.8    V116.3z"/></g><g><path class="st0" d="M101.4,109.9H26.6c-0.6,0-1-0.4-1-1v-8.6c0-0.6,0.4-1,1-1h74.8c0.6,0,1,0.4,1,1v8.6    C102.4,109.4,101.9,109.9,101.4,109.9z M27.6,107.9h72.8v-6.6H27.6V107.9z"/></g><g><path class="st0" d="M64,32.2c-12.4,0-22.5-10.1-22.5-22.5c0-0.6,0.4-1,1-1h43.1c0.6,0,1,0.4,1,1C86.5,22.1,76.4,32.2,64,32.2z     M43.5,10.7C44,21.6,53,30.2,64,30.2c11,0,20-8.7,20.5-19.5H43.5z"/></g><g><path class="st0" d="M63.2,90.5c-6.4,0-11.7-2.4-16-7.1c-0.3-0.3-0.3-0.9-0.1-1.3l5.3-7.3c0.2-0.2,0.4-0.4,0.7-0.4    c0.3,0,0.6,0.1,0.8,0.3c0.4,0.4,0.9,0.8,1.5,1.4c0.4,0.4,1.3,1,3.4,2.1c1.6,0.8,3.1,1.3,4.7,1.3c1.5,0,2.8-0.4,4-1.3    c1.1-0.8,1.6-2.1,1.6-3.8c0-1.7-0.6-3-1.8-3.9c-1.3-1-2.9-1.4-5-1.4c-2.1,0-4.6,0.8-7.4,2.3c-0.4,0.2-0.9,0.1-1.2-0.2l-4.2-4.5    c-0.2-0.2-0.3-0.4-0.3-0.7V44c0-0.6,0.4-1,1-1h27.2c0.6,0,1,0.4,1,1v8.7c0,0.6-0.4,1-1,1H60.6v5.3c1.1-0.2,2.3-0.3,3.6-0.3    c4.6,0,8.5,1.4,11.8,4.2c3.4,2.8,5.1,6.6,5.1,11.4c0,4.7-1.7,8.7-5.2,11.8C72.5,89,68.2,90.5,63.2,90.5z M49.2,82.7    c3.8,3.9,8.5,5.8,14,5.8c4.5,0,8.3-1.4,11.3-4.1c3-2.7,4.5-6.1,4.5-10.3c0-4.2-1.4-7.4-4.3-9.8c-2.9-2.5-6.5-3.7-10.6-3.7    c-1.6,0-3.1,0.2-4.3,0.5c-0.3,0.1-0.6,0-0.9-0.2c-0.3-0.2-0.4-0.5-0.4-0.8v-7.5c0-0.6,0.4-1,1-1h16.8V45H51.2v20.6l3.4,3.7    c2.9-1.5,5.5-2.2,7.7-2.2c2.5,0,4.6,0.6,6.2,1.8c1.7,1.3,2.6,3.1,2.6,5.5c0,2.3-0.8,4.1-2.4,5.4c-1.5,1.2-3.2,1.8-5.2,1.8    c-1.9,0-3.8-0.5-5.6-1.5c-1.8-1-3-1.7-3.7-2.3c-0.3-0.2-0.5-0.5-0.7-0.7L49.2,82.7z"/></g></g></svg>
